<svg width="32" height="32" xmlns="http://www.w3.org/2000/svg">

 <g>
  <title>background</title>
  <rect fill="none" id="canvas_background" height="34" width="34" y="-1" x="-1"/>
 </g>
 <g>
  <title>Layer 1</title>
  <path stroke="null" id="svg_1" d="m15.999999,19.397653q1.167943,0 2.265102,-0.265442l0,11.59095q0,0.460099 -0.336226,0.796325t-0.796325,0.336226l-2.265102,0q-0.460099,0 -0.796325,-0.336226t-0.336226,-0.796325l0,-11.59095q1.079463,0.265442 2.265102,0.265442zm0,-19.253364q3.751575,0 6.405991,2.654416t2.654416,6.405991t-2.654416,6.405991t-6.405991,2.654416t-6.405991,-2.654416t-2.654416,-6.405991t2.654416,-6.405991t6.405991,-2.654416zm0,3.963928q0.247745,0 0.40701,-0.159265t0.159265,-0.40701t-0.159265,-0.40701t-0.40701,-0.159265q-2.583632,0 -4.406331,1.822699t-1.822699,4.406331q0,0.247745 0.159265,0.40701t0.40701,0.159265t0.40701,-0.159265t0.159265,-0.40701q0,-2.105837 1.495321,-3.601158t3.601158,-1.495321z"/>
 </g>
</svg>